# xmcd
#
# Track frame offsets: 
#        150
#        18277
#        35328
#        52304
#        69840
#        92400
#        113579
#        129997
#        146696
#        165156
#        184490
#        201545
#
# Disc length: 3032 seconds
#
# Revision: 0
# Processed by: cddbd v1.5.2PL0 Copyright (c) Steve Scherf et al.
# Submitted via: ExactAudioCopy v1.2
#
DISCID=a00bd60c
DTITLE=Pat Powell - About Time
DYEAR=2018
DGENRE=R&B
TTITLE0=Baby Gets What Baby Wants
TTITLE1=The Antidote
TTITLE2=I'm Your Rock
TTITLE3=Don't Take Liberties
TTITLE4=Come Back to Me
TTITLE5=Betty Mae
TTITLE6=The Love Will Come Around
TTITLE7=Double or Nothing
TTITLE8=I'd Have the Blues
TTITLE9=Off the Lead
TTITLE10=The Bitter End
TTITLE11=Today I am Only Thinking of You
EXTD=
EXTT0=
EXTT1=
EXTT2=
EXTT3=
EXTT4=
EXTT5=
EXTT6=
EXTT7=
EXTT8=
EXTT9=
EXTT10=
EXTT11=
PLAYORDER=
